<?xml version="1.0" encoding="utf-8"?>
<!DOCTYPE svg PUBLIC "-//W3C//DTD SVG 20010904//EN" "http://www.w3.org/TR/2001/REC-SVG-20010904/DTD/svg10.dtd">
<svg version="1.0" xmlns="http://www.w3.org/2000/svg" width="200pt" height="200pt" viewBox="0 0 602 602" style="" preserveAspectRatio="xMidYMid meet">
<g fill="#00000001" stroke="#00000001">
<path d="M 247.500 2.462 C 237.104 4.314 224.838 6.961 222.000 7.966 C 220.625 8.453 216.125 9.813 212.000 10.989 C 203.531 13.402 189.587 18.331 183.305 21.130 C 180.998 22.159 178.807 23.000 178.438 23.000 C 177.809 23.000 160.794 31.444 153.000 35.623 C 151.075 36.655 149.350 37.838 149.167 38.250 C 148.983 38.663 148.294 39.000 147.635 39.000 C 146.506 39.000 131.075 47.737 130.000 48.985 C 129.725 49.304 127.250 51.000 124.500 52.753 C 121.750 54.507 118.320 56.967 116.878 58.220 C 115.436 59.474 109.627 64.325 103.970 69.000 C 89.665 80.821 77.018 93.491 69.517 103.514 C 65.383 109.037 64.032 110.657 59.906 115.029 C 57.930 117.124 54.794 121.237 52.939 124.169 C 51.084 127.101 49.291 129.725 48.954 130.000 C 48.618 130.275 47.665 131.850 46.835 133.500 C 46.005 135.150 44.283 138.300 43.007 140.500 C 41.731 142.700 40.183 145.400 39.568 146.500 C 38.952 147.600 37.299 150.300 35.894 152.500 C 34.489 154.700 32.181 158.975 30.765 162.000 C 25.266 173.747 23.000 178.904 22.994 179.686 C 22.990 180.134 22.411 181.625 21.705 183.000 C 21.000 184.375 19.595 187.750 18.585 190.500 C 17.574 193.250 16.153 196.850 15.427 198.500 C 14.701 200.150 13.439 203.975 12.622 207.000 C 11.804 210.025 10.417 214.975 9.537 218.000 C 7.162 226.175 4.077 240.325 2.452 250.500 C 0.370 263.533 0.389 341.916 2.476 354.000 C 4.999 368.604 9.369 388.001 10.925 391.500 C 11.414 392.600 12.373 395.750 13.055 398.500 C 13.737 401.250 14.679 403.928 15.147 404.450 C 15.616 404.973 16.000 406.008 16.000 406.751 C 16.000 407.913 20.459 419.099 25.666 431.000 C 26.509 432.925 28.085 436.525 29.170 439.000 C 30.254 441.475 31.561 444.175 32.073 445.000 C 32.586 445.825 33.460 447.400 34.017 448.500 C 34.574 449.600 35.924 451.850 37.017 453.500 C 38.110 455.150 39.685 457.850 40.517 459.500 C 42.247 462.930 42.332 463.069 50.786 476.301 C 54.244 481.711 58.294 487.352 59.786 488.835 C 61.279 490.319 63.836 493.325 65.470 495.516 C 69.333 500.698 69.424 500.815 73.243 505.472 C 79.502 513.105 89.540 523.282 94.500 527.023 C 97.250 529.098 101.457 532.648 103.849 534.912 C 114.167 544.678 131.564 557.119 144.000 563.623 C 147.025 565.205 149.725 566.758 150.000 567.072 C 152.206 569.597 193.077 587.779 200.600 589.582 C 202.195 589.964 203.950 590.549 204.500 590.882 C 205.611 591.554 208.954 592.523 226.500 597.260 L 238.500 600.500 302.500 600.500 L 366.500 600.500 377.500 597.658 C 397.340 592.531 424.741 582.744 436.500 576.584 C 438.150 575.720 440.025 575.010 440.667 575.006 C 441.308 575.003 441.983 574.663 442.167 574.250 C 442.350 573.838 444.525 572.435 447.000 571.134 C 462.093 563.198 467.543 560.059 476.500 554.145 C 486.061 547.831 494.844 540.908 503.500 532.862 C 505.700 530.817 509.300 527.829 511.500 526.221 C 515.893 523.011 528.061 510.808 530.726 506.942 C 531.651 505.599 532.916 504.050 533.536 503.500 C 534.156 502.950 536.417 500.025 538.561 497.000 C 543.205 490.447 544.526 489.000 545.861 489.000 C 546.413 489.000 547.134 488.153 547.462 487.119 C 547.791 486.084 548.938 484.172 550.011 482.869 C 553.294 478.885 553.477 478.625 555.919 474.500 C 563.155 462.279 571.952 446.868 574.186 442.500 C 577.104 436.794 588.395 409.769 589.436 406.000 C 589.815 404.625 590.526 402.600 591.016 401.500 C 591.505 400.400 592.404 397.700 593.013 395.500 C 593.623 393.300 595.551 386.325 597.298 380.000 L 600.475 368.500 600.773 305.245 C 601.086 238.737 601.131 239.625 596.535 221.000 C 594.175 211.437 586.438 188.770 582.995 181.330 C 581.348 177.772 580.000 174.623 580.000 174.332 C 580.000 173.185 570.560 154.321 568.593 151.538 C 567.442 149.909 565.825 147.209 565.000 145.538 C 562.476 140.427 557.620 132.519 556.787 132.167 C 556.354 131.983 556.000 131.365 556.000 130.794 C 556.000 129.348 547.317 117.141 543.700 113.500 C 542.060 111.850 538.135 107.108 534.976 102.962 C 527.429 93.056 515.649 80.545 510.563 77.033 C 508.328 75.490 504.068 72.039 501.095 69.364 C 498.122 66.689 494.297 63.245 492.595 61.710 C 490.893 60.176 485.000 55.901 479.500 52.210 C 474.000 48.520 469.275 45.266 469.000 44.980 C 468.725 44.693 467.375 43.899 466.000 43.213 C 464.625 42.528 460.800 40.475 457.500 38.651 C 444.467 31.446 435.230 26.732 429.500 24.359 C 426.200 22.993 422.150 21.285 420.500 20.564 C 418.850 19.843 415.250 18.474 412.500 17.521 C 409.750 16.568 406.600 15.373 405.500 14.865 C 404.400 14.357 401.138 13.279 398.250 12.471 C 395.363 11.662 390.638 10.289 387.750 9.420 C 380.670 7.288 367.345 4.283 357.000 2.485 C 345.793 0.537 258.412 0.519 247.500 2.462 M 334.506 12.514 C 386.553 18.581 434.079 37.117 475.000 67.311 C 570.780 137.983 614.221 259.231 584.880 374.000 C 561.674 464.773 496.684 538.424 409.000 573.319 C 361.094 592.384 305.296 598.174 254.000 589.402 C 205.470 581.104 159.825 560.683 120.649 529.742 C 107.691 519.507 85.745 497.516 75.000 484.000 C 3.987 394.666 -8.861 273.461 41.940 172.119 C 50.236 155.571 56.458 145.289 66.564 131.428 C 115.601 64.174 188.743 21.697 272.000 12.122 C 284.850 10.644 320.373 10.867 334.506 12.514 "/></g>
<g fill="#0000006D" stroke="#0000006D">
<path d="M 276.500 19.057 C 175.973 29.394 89.977 89.117 46.915 178.500 C -10.893 298.492 21.757 441.393 126.000 524.630 C 158.537 550.611 196.936 569.067 239.058 578.972 C 273.541 587.080 316.126 588.188 351.448 581.897 C 471.208 560.568 563.742 466.670 582.934 347.000 C 595.171 270.694 575.963 193.266 529.472 131.500 C 484.114 71.238 418.694 32.409 343.237 20.960 C 327.450 18.565 291.307 17.534 276.500 19.057 M 315.553 115.952 C 319.776 118.031 322.609 120.271 324.543 123.062 C 327.295 127.033 329.937 136.474 329.979 142.487 C 330.000 145.410 330.071 145.368 333.368 140.473 C 337.787 133.911 343.821 128.544 348.528 126.991 C 357.293 124.098 372.156 128.109 378.438 135.063 C 384.590 141.873 385.149 148.590 380.945 165.167 C 377.036 180.577 378.578 184.878 390.199 190.970 C 421.732 207.499 436.000 226.962 436.000 253.445 C 436.000 271.588 430.679 286.020 418.969 299.636 C 411.378 308.464 411.162 311.067 417.318 319.550 C 429.970 336.983 432.970 356.097 426.536 378.284 C 417.525 409.358 400.119 427.343 371.500 435.151 C 364.399 437.088 360.878 437.343 340.164 437.417 L 316.828 437.500 314.432 440.285 C 313.114 441.817 311.329 445.642 310.465 448.785 C 305.220 467.876 303.954 471.013 299.710 475.426 C 294.097 481.263 289.037 482.693 279.591 481.110 C 270.404 479.570 263.387 475.668 259.884 470.152 C 257.097 465.761 255.000 458.377 255.000 452.951 C 255.000 449.444 253.531 449.112 251.903 452.250 C 248.988 457.868 243.389 463.390 238.197 465.767 C 233.632 467.857 231.824 468.162 226.986 467.656 C 218.997 466.821 210.986 463.613 207.249 459.752 C 201.020 453.316 199.729 446.290 202.516 434.000 C 206.210 417.714 206.376 416.321 205.016 413.039 C 203.253 408.784 199.239 406.958 182.052 402.597 C 165.873 398.492 161.082 396.245 156.589 390.657 C 153.829 387.223 153.500 386.104 153.500 380.133 C 153.500 368.056 161.833 352.101 170.500 347.585 C 173.722 345.906 176.630 345.452 185.444 345.251 C 195.664 345.018 196.566 344.832 199.068 342.434 C 202.463 339.182 203.092 337.005 218.400 275.500 C 232.809 217.605 233.540 214.288 232.659 210.777 C 231.493 206.131 227.296 202.330 220.251 199.539 C 207.926 194.657 203.507 190.353 201.562 181.338 C 200.051 174.337 204.566 159.176 209.804 153.661 C 216.714 146.384 224.271 145.902 245.719 151.373 C 270.136 157.601 271.046 157.166 276.628 136.594 C 281.881 117.235 287.969 111.547 302.444 112.472 C 307.515 112.796 311.050 113.735 315.553 115.952 "/></g>
<g fill="#F89B2BFF" stroke="#F89B2BFF">
<path d="M 289.000 20.665 C 226.868 23.997 168.269 47.058 121.000 86.780 C 88.401 114.173 61.281 150.494 44.547 189.167 C -0.014 292.152 19.288 408.804 94.685 492.185 C 149.204 552.477 231.025 586.830 312.500 583.635 C 416.466 579.557 509.097 519.795 554.506 427.500 C 568.751 398.547 576.537 373.886 581.501 342.000 C 583.744 327.589 584.584 292.514 583.070 276.417 C 578.110 223.659 559.442 175.712 526.549 131.248 C 515.915 116.872 487.909 88.920 473.000 77.802 C 427.317 43.735 377.227 25.085 320.500 21.021 C 307.159 20.065 301.403 20.000 289.000 20.665 M 315.553 115.952 C 319.776 118.031 322.609 120.271 324.543 123.062 C 327.295 127.033 329.937 136.474 329.979 142.487 C 330.000 145.410 330.071 145.368 333.368 140.473 C 337.787 133.911 343.821 128.544 348.528 126.991 C 357.293 124.098 372.156 128.109 378.438 135.063 C 384.590 141.873 385.149 148.590 380.945 165.167 C 377.036 180.577 378.578 184.878 390.199 190.970 C 421.732 207.499 436.000 226.962 436.000 253.445 C 436.000 271.588 430.679 286.020 418.969 299.636 C 411.378 308.464 411.162 311.067 417.318 319.550 C 429.970 336.983 432.970 356.097 426.536 378.284 C 417.525 409.358 400.119 427.343 371.500 435.151 C 364.399 437.088 360.878 437.343 340.164 437.417 L 316.828 437.500 314.432 440.285 C 313.114 441.817 311.329 445.642 310.465 448.785 C 305.220 467.876 303.954 471.013 299.710 475.426 C 294.097 481.263 289.037 482.693 279.591 481.110 C 270.404 479.570 263.387 475.668 259.884 470.152 C 257.097 465.761 255.000 458.377 255.000 452.951 C 255.000 449.444 253.531 449.112 251.903 452.250 C 248.988 457.868 243.389 463.390 238.197 465.767 C 233.632 467.857 231.824 468.162 226.986 467.656 C 218.997 466.821 210.986 463.613 207.249 459.752 C 201.020 453.316 199.729 446.290 202.516 434.000 C 206.210 417.714 206.376 416.321 205.016 413.039 C 203.253 408.784 199.239 406.958 182.052 402.597 C 165.873 398.492 161.082 396.245 156.589 390.657 C 153.829 387.223 153.500 386.104 153.500 380.133 C 153.500 368.056 161.833 352.101 170.500 347.585 C 173.722 345.906 176.630 345.452 185.444 345.251 C 195.664 345.018 196.566 344.832 199.068 342.434 C 202.463 339.182 203.092 337.005 218.400 275.500 C 232.809 217.605 233.540 214.288 232.659 210.777 C 231.493 206.131 227.296 202.330 220.251 199.539 C 207.926 194.657 203.507 190.353 201.562 181.338 C 200.051 174.337 204.566 159.176 209.804 153.661 C 216.714 146.384 224.271 145.902 245.719 151.373 C 270.136 157.601 271.046 157.166 276.628 136.594 C 281.881 117.235 287.969 111.547 302.444 112.472 C 307.515 112.796 311.050 113.735 315.553 115.952 "/></g>
<g fill="#FFFFFFFF" stroke="#FFFFFFFF">
<path d="M 285.000 144.000 C 279.768 164.957 278.471 169.000 276.980 169.000 C 276.002 169.000 261.920 165.695 245.686 161.655 L 216.172 154.309 212.188 170.225 C 209.437 181.213 208.559 186.264 209.352 186.538 C 209.983 186.756 215.212 188.083 220.971 189.485 C 226.730 190.888 233.351 192.960 235.683 194.089 C 240.325 196.336 243.819 201.067 244.634 206.209 C 244.996 208.489 239.909 230.541 228.075 278.000 C 218.681 315.675 210.771 347.478 210.498 348.673 C 209.668 352.298 205.101 356.891 201.690 357.529 C 199.015 358.029 186.186 355.551 175.417 352.453 C 173.542 351.914 172.616 353.509 166.167 368.390 C 162.225 377.485 159.000 385.331 159.000 385.825 C 159.000 386.319 172.314 390.046 188.586 394.106 C 204.858 398.166 218.691 401.809 219.325 402.201 C 220.322 402.817 216.592 419.632 208.254 452.106 C 207.919 453.414 210.577 454.397 222.550 457.394 C 230.639 459.419 237.395 460.939 237.563 460.771 C 237.731 460.603 240.622 449.479 243.987 436.051 C 247.353 422.623 250.298 411.326 250.533 410.947 C 250.767 410.568 256.481 411.720 263.229 413.507 C 274.172 416.404 275.475 416.980 275.270 418.831 C 275.144 419.973 272.556 430.813 269.520 442.920 C 266.484 455.027 264.000 465.549 264.000 466.301 C 264.000 467.229 268.716 468.855 278.650 471.352 C 286.707 473.377 293.390 474.914 293.501 474.767 C 293.612 474.620 296.536 463.089 299.999 449.143 L 306.295 423.786 309.897 424.393 C 326.790 427.239 338.602 428.171 351.500 427.674 C 367.408 427.062 373.072 425.758 384.608 420.053 C 401.053 411.921 413.286 394.226 418.593 370.893 C 419.720 365.934 420.102 360.512 419.847 353.062 C 419.506 343.102 419.224 341.839 415.798 334.928 C 411.361 325.977 402.729 316.935 393.427 311.495 C 389.868 309.414 387.078 307.589 387.228 307.440 C 387.378 307.291 390.542 306.025 394.260 304.626 C 410.791 298.405 420.203 287.367 424.985 268.590 C 431.065 244.720 423.300 224.246 402.594 209.555 C 395.718 204.675 381.641 197.487 372.159 194.012 C 368.671 192.734 365.581 191.071 365.291 190.316 C 364.890 189.270 373.698 151.432 376.566 141.881 C 376.967 140.544 374.483 139.618 362.371 136.586 C 354.296 134.565 347.368 133.268 346.975 133.705 C 346.583 134.142 343.682 145.075 340.531 158.000 C 337.379 170.925 334.653 181.655 334.473 181.844 C 334.019 182.320 310.675 176.856 309.756 176.058 C 309.347 175.703 311.709 164.678 315.006 151.559 C 318.303 138.440 321.000 127.378 321.000 126.977 C 321.000 126.424 293.678 119.000 291.644 119.000 C 291.422 119.000 288.433 130.250 285.000 144.000 M 293.219 308.520 C 321.381 315.548 336.734 322.156 347.017 331.676 C 354.435 338.544 357.447 345.055 357.346 354.000 C 357.204 366.551 350.381 376.318 338.419 381.092 C 333.102 383.215 330.925 383.457 317.000 383.477 C 301.030 383.501 297.800 383.046 274.000 377.419 C 268.225 376.054 262.830 374.521 262.010 374.011 C 260.735 373.219 261.741 368.176 268.989 339.043 C 273.647 320.319 277.831 305.000 278.286 305.000 C 278.741 305.000 285.461 306.584 293.219 308.520 M 311.686 214.380 C 333.592 219.691 343.640 223.515 353.066 230.127 C 363.228 237.256 367.617 245.725 366.750 256.531 C 365.811 268.226 358.264 277.688 347.177 281.067 C 341.291 282.862 327.771 283.343 319.054 282.068 C 311.404 280.950 287.625 275.504 285.997 274.498 C 285.408 274.134 298.417 219.191 300.499 213.250 C 301.051 211.677 300.174 211.588 311.686 214.380 "/></g>
<g fill="#AD6F24FF" stroke="#AD6F24FF">
<path d="M 290.312 311.000 C 284.065 311.435 282.721 311.887 280.040 314.458 C 278.343 316.086 276.444 319.123 275.819 321.208 C 275.195 323.294 274.347 325.000 273.935 325.000 C 273.524 325.000 273.423 325.900 273.710 327.000 C 273.998 328.100 273.773 329.000 273.210 329.000 C 272.648 329.000 272.423 329.900 272.710 331.000 C 272.998 332.100 272.773 333.000 272.210 333.000 C 271.648 333.000 271.423 333.900 271.710 335.000 C 271.998 336.100 271.773 337.000 271.210 337.000 C 270.648 337.000 270.423 337.900 270.710 339.000 C 270.998 340.100 270.773 341.000 270.210 341.000 C 269.648 341.000 269.423 341.900 269.710 343.000 C 269.998 344.100 269.773 345.000 269.210 345.000 C 268.648 345.000 268.423 345.900 268.710 347.000 C 268.998 348.100 268.773 349.000 268.210 349.000 C 267.648 349.000 267.423 349.900 267.710 351.000 C 267.998 352.100 267.793 353.000 267.255 353.000 C 266.717 353.000 266.501 354.238 266.775 355.750 C 267.049 357.263 266.895 358.146 266.433 357.713 C 265.971 357.280 265.718 358.950 265.870 361.424 C 266.230 367.291 269.404 371.938 274.970 374.750 C 277.420 375.988 279.216 377.050 278.962 377.111 C 278.708 377.172 279.563 377.133 280.862 377.024 C 282.162 376.916 282.963 377.251 282.643 377.769 C 282.312 378.303 283.129 378.507 284.530 378.239 C 285.889 377.979 287.000 378.191 287.000 378.710 C 287.000 379.229 288.463 379.449 290.250 379.199 C 292.039 378.949 293.134 379.130 292.686 379.603 C 292.239 380.075 293.589 380.370 295.686 380.258 C 297.784 380.147 298.860 380.331 298.078 380.668 C 295.214 381.903 322.860 382.171 328.691 380.965 C 345.118 377.568 353.942 368.155 353.968 354.000 C 353.986 344.393 350.617 337.928 341.490 330.061 C 339.295 328.170 337.500 326.220 337.500 325.728 C 337.500 325.236 337.208 325.125 336.852 325.481 C 336.496 325.838 333.710 324.798 330.662 323.172 C 327.613 321.545 325.416 319.917 325.779 319.554 C 326.142 319.191 325.591 319.220 324.555 319.617 C 323.254 320.117 322.893 319.982 323.388 319.181 C 323.834 318.460 323.591 318.220 322.745 318.544 C 321.998 318.831 319.837 318.394 317.943 317.572 C 316.049 316.750 314.725 316.013 315.000 315.933 C 315.598 315.759 313.379 315.407 310.191 315.171 C 308.921 315.077 308.134 314.592 308.442 314.093 C 308.751 313.595 308.102 313.422 307.001 313.710 C 305.901 313.998 305.000 313.773 305.000 313.210 C 305.000 312.648 304.030 312.441 302.844 312.751 C 301.522 313.097 300.930 312.923 301.313 312.302 C 301.698 311.679 300.972 311.474 299.428 311.769 C 298.047 312.033 297.048 311.855 297.208 311.375 C 297.369 310.894 294.266 310.725 290.312 311.000 M 308.225 317.112 C 329.491 323.424 344.439 332.977 349.512 343.500 C 352.573 349.850 352.214 359.285 348.683 365.292 C 342.791 375.316 333.201 379.335 315.507 379.197 C 296.230 379.046 277.692 374.892 272.320 369.520 C 267.850 365.050 267.937 361.136 272.951 341.194 C 277.476 323.195 278.902 319.349 282.163 316.350 C 286.644 312.227 292.326 312.393 308.225 317.112 M 302.292 316.471 C 320.639 321.238 332.917 327.036 341.330 334.905 C 349.836 342.862 352.630 351.576 349.601 360.697 C 345.177 374.014 330.181 380.087 307.081 377.917 C 286.627 375.995 274.162 372.147 271.459 366.920 C 269.227 362.604 269.655 358.283 274.042 340.833 C 278.750 322.106 280.835 317.412 285.307 315.467 C 289.721 313.547 291.427 313.648 302.292 316.471 "/></g>
<g fill="#C8822DFF" stroke="#C8822DFF">
<path d="M 286.500 313.669 C 283.525 314.459 280.015 318.048 278.364 321.989 C 275.763 328.199 269.000 356.773 269.000 361.555 C 269.000 365.482 269.513 366.713 272.320 369.520 C 277.692 374.892 296.230 379.046 315.507 379.197 C 333.201 379.335 342.791 375.316 348.683 365.292 C 352.214 359.285 352.573 349.850 349.512 343.500 C 346.236 336.703 337.885 329.459 327.696 324.572 C 312.952 317.501 292.477 312.082 286.500 313.669 M 309.500 321.023 C 335.587 329.421 348.000 340.006 348.000 353.856 C 348.000 371.712 330.507 379.177 299.379 374.603 C 277.885 371.445 273.000 368.740 273.000 359.997 C 273.000 354.537 279.124 328.660 281.705 323.213 C 285.093 316.063 292.322 315.494 309.500 321.023 "/></g>
<g fill="#D48527FF" stroke="#D48527FF">
<path d="M 287.619 315.074 C 283.391 316.282 280.261 319.681 278.577 324.894 C 274.835 336.479 270.645 355.035 270.576 360.330 C 270.506 365.673 270.768 366.399 273.709 369.029 C 282.759 377.121 322.317 381.026 335.500 375.129 C 347.545 369.741 352.922 359.122 349.523 347.432 C 346.432 336.798 334.728 327.643 315.308 320.668 C 301.973 315.878 291.917 313.847 287.619 315.074 M 309.500 321.023 C 335.587 329.421 348.000 340.006 348.000 353.856 C 348.000 371.712 330.507 379.177 299.379 374.603 C 277.885 371.445 273.000 368.740 273.000 359.997 C 273.000 354.537 279.124 328.660 281.705 323.213 C 285.093 316.063 292.322 315.494 309.500 321.023 "/></g>
<g fill="#AD6F24FF" stroke="#AD6F24FF">
<path d="M 313.327 218.000 C 304.824 218.593 301.899 220.700 299.259 228.133 C 298.336 230.732 297.290 232.679 296.935 232.460 C 296.580 232.240 296.514 233.239 296.789 234.679 C 297.143 236.530 296.943 237.083 296.105 236.565 C 295.247 236.034 295.109 236.586 295.606 238.565 C 296.137 240.680 295.994 241.114 294.976 240.485 C 294.022 239.896 293.837 240.133 294.303 241.347 C 295.157 243.573 294.005 249.121 292.838 248.400 C 292.306 248.071 292.208 248.982 292.606 250.565 C 293.042 252.302 292.925 253.072 292.286 252.677 C 291.639 252.277 291.320 255.103 291.390 260.605 C 291.499 269.102 291.523 269.176 295.127 272.478 C 297.588 274.733 300.551 276.204 304.342 277.052 C 307.638 277.790 309.673 278.721 309.301 279.321 C 308.916 279.945 309.346 280.081 310.412 279.672 C 311.369 279.305 316.372 279.523 321.528 280.157 C 345.857 283.146 362.114 273.867 363.727 256.069 C 364.591 246.546 359.528 237.521 349.604 230.894 C 346.247 228.652 343.500 226.372 343.500 225.826 C 343.500 225.280 343.177 225.156 342.782 225.551 C 341.717 226.616 335.919 223.941 336.667 222.729 C 337.030 222.143 336.827 221.989 336.200 222.376 C 334.783 223.252 329.852 222.048 330.508 220.987 C 330.780 220.547 329.990 220.436 328.751 220.741 C 327.495 221.050 326.857 220.910 327.307 220.424 C 327.751 219.944 327.301 219.505 326.307 219.447 C 321.075 219.143 320.022 218.935 320.250 218.250 C 320.388 217.838 317.272 217.725 313.327 218.000 M 329.543 224.014 C 350.543 231.011 361.000 241.147 361.000 254.507 C 361.000 264.661 353.828 273.540 343.110 276.656 C 336.270 278.645 318.914 278.073 308.017 275.500 C 297.688 273.062 293.996 269.464 294.009 261.850 C 294.019 256.069 299.842 232.139 302.480 227.038 C 306.509 219.248 313.044 218.518 329.543 224.014 "/></g>
<g fill="#C8822DFF" stroke="#C8822DFF">
<path d="M 307.299 221.897 C 305.538 223.005 303.369 225.319 302.480 227.038 C 299.842 232.139 294.019 256.069 294.009 261.850 C 293.996 269.464 297.688 273.062 308.017 275.500 C 318.914 278.073 336.270 278.645 343.110 276.656 C 353.828 273.540 361.000 264.661 361.000 254.507 C 361.000 241.147 350.543 231.011 329.543 224.014 C 317.001 219.836 311.417 219.304 307.299 221.897 M 329.913 225.173 C 344.077 230.123 354.005 237.169 358.084 245.165 C 361.810 252.467 359.783 264.265 353.869 269.701 C 346.513 276.464 330.687 278.748 313.495 275.528 C 299.165 272.845 295.000 269.547 295.000 260.884 C 295.000 256.962 298.595 241.107 301.569 231.911 C 303.122 227.112 307.094 222.559 310.500 221.676 C 313.939 220.785 320.998 222.057 329.913 225.173 "/></g>
<g fill="#F89B2BFF" stroke="#F89B2BFF">
<path d="M 287.420 320.842 C 285.726 321.899 283.811 324.054 283.164 325.632 C 281.281 330.221 275.000 356.047 275.000 359.198 C 275.000 365.723 279.581 368.716 293.605 371.352 C 324.561 377.172 343.193 371.908 345.671 356.642 C 347.847 343.232 335.496 331.949 309.373 323.482 C 295.247 318.903 291.290 318.427 287.420 320.842 "/></g>
<g fill="#D48527FF" stroke="#D48527FF">
<path d="M 291.180 116.682 C 284.986 119.734 282.874 123.783 277.048 143.775 C 275.771 148.155 273.780 152.333 272.044 154.275 C 269.509 157.111 268.579 157.487 264.331 157.389 C 261.674 157.327 253.016 155.640 245.091 153.639 C 228.559 149.464 222.445 149.122 216.424 152.037 C 209.376 155.449 204.000 166.343 204.000 177.214 C 204.000 187.204 207.831 191.596 221.978 197.821 C 232.331 202.377 235.000 205.591 235.000 213.503 C 235.000 219.318 207.239 332.411 204.032 339.662 C 201.071 346.356 197.475 347.992 185.718 347.996 C 179.626 347.999 174.722 348.521 172.718 349.381 C 164.521 352.898 156.800 366.595 156.162 378.750 C 155.906 383.622 156.145 386.000 156.891 386.000 C 157.501 386.000 158.015 385.663 158.032 385.250 C 158.534 373.642 158.862 371.894 161.653 365.950 C 164.891 359.051 169.667 352.676 170.986 353.492 C 171.429 353.765 172.066 353.269 172.404 352.391 C 172.753 351.479 173.658 351.039 174.508 351.365 C 175.329 351.680 176.000 351.501 176.000 350.969 C 176.000 350.403 180.559 350.000 186.965 350.000 C 197.733 350.000 197.992 349.946 201.362 346.987 C 203.249 345.330 205.527 342.141 206.423 339.901 C 208.423 334.902 235.548 226.538 236.899 218.148 C 238.712 206.886 235.537 201.481 224.067 196.305 C 213.082 191.347 207.303 187.209 206.999 184.080 C 205.854 172.294 207.605 163.705 212.143 158.847 C 213.714 157.165 215.000 155.236 215.000 154.561 C 215.000 153.886 216.463 153.203 218.250 153.044 C 227.204 152.246 234.599 153.083 247.947 156.405 C 264.873 160.617 267.556 160.765 272.102 157.738 C 275.632 155.388 275.937 154.670 282.090 134.260 C 284.255 127.077 288.092 120.425 289.347 121.680 C 289.706 122.039 290.000 121.306 290.000 120.050 C 290.000 118.154 290.424 117.848 292.500 118.245 C 293.875 118.508 295.000 118.275 295.000 117.727 C 295.000 116.182 308.052 117.456 312.150 119.401 C 314.119 120.335 316.672 121.977 317.823 123.050 C 318.974 124.122 320.438 125.000 321.075 125.000 C 321.771 125.000 322.043 125.997 321.755 127.500 C 321.492 128.875 321.665 130.000 322.139 130.000 C 323.701 130.000 323.021 142.352 320.993 150.813 C 318.299 162.052 318.400 165.491 321.517 168.608 C 323.341 170.432 324.648 170.946 326.267 170.476 C 330.213 169.330 332.694 165.015 335.949 153.630 C 338.981 143.023 342.885 135.000 345.014 135.000 C 345.556 135.000 346.000 134.273 346.000 133.383 C 346.000 132.204 346.667 131.894 348.470 132.239 C 349.828 132.499 350.702 132.326 350.411 131.856 C 349.647 130.619 359.336 130.804 364.586 132.126 C 367.046 132.745 370.443 134.545 372.135 136.126 C 373.827 137.707 375.834 139.000 376.595 139.000 C 377.355 139.000 377.988 140.013 378.002 141.250 C 378.015 142.488 378.282 145.537 378.596 148.027 C 378.981 151.082 378.326 156.282 376.583 164.020 C 373.083 179.556 373.168 182.983 377.166 187.536 C 378.907 189.519 383.520 192.734 387.416 194.680 C 405.095 203.508 418.223 214.646 424.906 226.487 C 437.276 248.405 432.857 277.673 414.067 298.287 C 404.859 308.388 404.717 310.369 412.454 320.798 C 421.820 333.423 425.005 342.609 424.993 356.960 C 424.970 384.458 409.150 412.791 387.452 424.193 C 373.337 431.611 368.677 432.428 340.316 432.466 L 315.132 432.500 312.044 435.459 C 309.112 438.267 305.605 447.084 303.490 456.960 C 301.675 465.436 294.866 476.536 292.123 475.490 C 291.366 475.202 290.121 475.485 289.355 476.120 C 287.280 477.842 276.717 476.572 271.736 474.001 C 260.588 468.248 259.199 461.796 264.415 440.000 C 266.595 430.890 266.425 427.606 263.604 424.326 C 261.519 421.902 260.851 421.668 258.456 422.520 C 254.284 424.005 252.411 427.402 248.686 440.234 C 245.456 451.361 241.496 459.425 239.782 458.366 C 239.352 458.100 239.000 458.837 239.000 460.004 C 239.000 461.441 238.435 462.056 237.250 461.909 C 236.288 461.790 234.682 462.047 233.683 462.479 C 226.524 465.577 205.320 456.821 207.325 451.595 C 207.662 450.718 207.501 450.000 206.969 450.000 C 205.179 450.000 205.978 438.950 208.582 427.678 C 211.333 415.773 211.265 411.055 208.295 407.774 C 205.385 404.558 201.776 403.141 185.827 398.955 C 171.151 395.102 162.318 391.494 162.812 389.554 C 162.944 389.034 161.890 388.452 160.469 388.262 C 158.228 387.962 158.016 388.162 158.872 389.761 C 160.654 393.090 169.251 396.778 184.999 400.971 C 200.096 404.989 204.214 406.687 206.718 409.925 C 208.554 412.298 208.243 419.818 205.903 429.670 C 203.011 441.848 203.486 451.326 207.234 456.241 C 210.719 460.810 217.474 464.051 224.915 464.726 C 233.893 465.540 237.583 464.469 242.400 459.652 C 245.862 456.190 247.124 453.811 249.390 446.464 C 253.604 432.807 255.303 428.859 257.634 427.320 C 259.496 426.090 259.973 426.116 261.384 427.527 C 263.511 429.654 263.414 433.716 260.993 443.813 C 256.383 463.042 260.450 473.383 274.229 477.475 C 290.288 482.244 299.550 476.983 304.548 460.253 C 305.987 455.439 307.845 449.259 308.677 446.520 C 312.171 435.025 315.555 433.493 334.101 435.008 C 348.454 436.181 362.630 435.084 374.064 431.915 C 399.656 424.823 418.022 404.117 425.080 374.398 C 430.011 353.640 426.669 335.853 414.912 320.270 C 407.477 310.417 407.622 308.886 416.983 298.382 C 428.874 285.040 434.820 267.690 433.722 249.535 C 432.313 226.241 419.043 209.096 390.754 194.020 C 375.472 185.876 374.231 183.065 378.372 165.979 C 383.637 144.255 381.036 136.137 367.035 130.608 C 361.173 128.293 351.479 128.165 347.279 130.348 C 340.660 133.787 337.446 138.985 333.691 152.318 C 330.743 162.784 328.817 166.000 325.496 166.000 C 321.712 166.000 321.309 162.134 323.825 150.000 C 325.022 144.225 325.999 138.150 325.996 136.500 C 325.967 123.686 315.645 114.966 300.572 115.023 C 297.013 115.036 293.126 115.723 291.180 116.682 "/></g>
<g fill="#D48527FF" stroke="#D48527FF">
<path d="M 306.819 223.927 C 305.472 224.987 303.622 227.575 302.708 229.677 C 300.058 235.776 295.000 256.793 295.000 261.708 C 295.000 270.901 304.184 275.418 325.500 276.710 C 342.389 277.733 353.032 273.425 357.541 263.740 C 365.104 247.496 354.436 233.510 327.617 224.507 C 318.378 221.406 310.311 221.181 306.819 223.927 M 326.728 226.545 C 338.563 230.518 345.067 234.065 350.673 239.604 C 359.468 248.295 360.287 257.984 352.933 266.339 C 347.265 272.778 342.120 274.518 329.000 274.430 C 310.964 274.309 300.069 270.768 297.947 264.340 C 296.762 260.748 297.454 255.882 301.126 242.000 C 303.950 231.326 304.886 229.273 308.206 226.480 C 312.060 223.237 316.925 223.254 326.728 226.545 "/></g>
<g fill="#F89B2BFF" stroke="#F89B2BFF">
<path d="M 309.548 228.595 C 306.801 231.342 305.173 235.392 302.545 246.013 C 299.325 259.025 299.287 262.938 302.345 266.239 C 305.537 269.683 316.176 272.000 328.798 272.000 C 339.573 272.000 343.760 271.016 348.751 267.310 C 357.738 260.638 357.023 246.912 347.288 239.245 C 335.656 230.083 314.133 224.010 309.548 228.595 "/></g>
<g fill="#AD6F24FF" stroke="#AD6F24FF">
<path d="M 375.403 150.246 C 374.977 152.586 374.724 155.029 374.841 155.675 C 374.957 156.321 374.633 157.109 374.120 157.426 C 373.607 157.743 373.423 158.902 373.711 160.001 C 373.998 161.100 373.773 162.000 373.210 162.000 C 372.648 162.000 372.423 162.900 372.710 164.000 C 372.998 165.100 372.773 166.000 372.210 166.000 C 371.648 166.000 371.423 166.900 371.710 168.000 C 371.998 169.100 371.773 170.000 371.210 170.000 C 370.648 170.000 370.423 170.900 370.710 172.000 C 370.998 173.100 370.827 174.000 370.330 174.000 C 369.119 174.000 370.273 184.935 371.770 187.642 C 372.422 188.820 374.350 190.958 376.054 192.392 C 377.759 193.826 378.781 195.038 378.327 195.083 C 377.872 195.129 378.602 195.286 379.949 195.431 C 381.296 195.576 382.572 196.217 382.785 196.854 C 382.997 197.491 383.582 197.758 384.085 197.447 C 384.588 197.136 385.000 197.385 385.000 198.000 C 385.000 198.615 385.450 198.840 386.000 198.500 C 386.550 198.160 387.000 198.385 387.000 199.000 C 387.000 199.615 387.450 199.840 388.000 199.500 C 388.550 199.160 389.000 199.434 389.000 200.108 C 389.000 200.782 389.273 201.060 389.607 200.727 C 389.940 200.393 390.728 200.540 391.357 201.053 C 391.985 201.567 395.931 204.234 400.124 206.982 C 414.823 216.612 424.522 229.751 427.107 243.537 C 429.479 256.184 425.753 275.417 418.836 286.238 C 417.170 288.844 413.319 293.250 410.277 296.030 C 407.235 298.810 405.263 300.953 405.896 300.792 C 406.528 300.632 405.910 301.591 404.522 302.924 C 402.599 304.773 402.000 306.361 402.000 309.615 C 402.000 311.962 402.481 314.179 403.068 314.542 C 403.656 314.905 403.886 315.855 403.580 316.653 C 403.273 317.451 403.433 317.850 403.934 317.541 C 405.335 316.675 415.623 331.398 418.095 337.805 C 420.941 345.185 421.746 358.804 419.903 368.417 C 419.156 372.313 418.597 376.063 418.661 376.750 C 418.725 377.438 418.358 378.000 417.845 378.000 C 417.332 378.000 417.026 378.563 417.166 379.250 C 417.305 379.938 416.920 381.400 416.308 382.500 C 415.697 383.600 415.241 384.725 415.294 385.000 C 415.347 385.275 413.673 388.875 411.574 393.000 C 402.551 410.730 390.577 420.686 371.829 426.044 C 362.756 428.637 356.087 429.408 344.500 429.203 C 339.550 429.115 333.261 429.009 330.525 428.966 C 327.788 428.924 325.300 428.486 324.996 427.993 C 324.678 427.479 321.778 427.646 318.198 428.384 C 310.905 429.887 306.562 433.393 304.829 439.176 C 304.210 441.243 303.272 442.668 302.744 442.342 C 302.175 441.990 302.060 442.613 302.460 443.875 C 302.865 445.152 302.701 446.000 302.048 446.000 C 301.372 446.000 301.213 447.001 301.627 448.649 C 302.045 450.316 301.921 451.069 301.290 450.679 C 300.677 450.300 300.483 451.075 300.789 452.679 C 301.157 454.603 300.958 455.092 300.038 454.523 C 299.121 453.957 298.966 454.319 299.460 455.875 C 299.831 457.044 299.717 458.000 299.205 458.000 C 298.251 458.000 295.658 468.991 296.430 469.764 C 297.372 470.706 300.916 461.962 303.427 452.500 C 306.780 439.861 308.639 436.100 312.947 433.230 C 316.338 430.971 316.705 430.945 335.447 431.593 C 357.135 432.343 366.158 431.375 378.108 427.018 C 387.648 423.539 394.997 418.830 401.804 411.834 C 408.093 405.372 409.975 402.707 414.546 393.788 C 422.600 378.077 426.021 356.352 422.535 343.060 C 420.333 334.660 417.996 330.179 410.867 320.688 C 402.622 309.711 402.814 308.237 414.046 296.352 C 431.166 278.236 435.579 250.899 424.896 229.150 C 418.926 216.998 406.167 205.770 387.261 196.032 C 382.729 193.698 377.666 190.245 376.011 188.359 C 373.407 185.394 373.002 184.157 373.017 179.215 C 373.027 176.072 373.914 170.125 374.989 166.000 C 377.530 156.251 378.536 147.449 377.203 146.626 C 376.599 146.252 375.859 147.740 375.403 150.246 "/></g>
<g fill="#AD6F24FF" stroke="#AD6F24FF">
<path d="M 214.530 190.295 C 215.646 191.125 219.420 192.967 222.916 194.388 C 226.412 195.808 230.746 198.095 232.547 199.468 C 236.973 202.844 239.472 209.541 238.621 215.747 C 237.561 223.479 209.082 337.033 207.095 341.448 C 206.092 343.676 204.051 346.625 202.560 348.000 C 200.075 350.291 198.874 350.542 188.174 351.005 L 176.500 351.510 181.000 352.880 C 186.476 354.546 196.085 354.409 200.410 352.602 C 204.090 351.065 208.727 345.936 209.607 342.430 C 209.940 341.101 210.573 340.236 211.013 340.508 C 211.453 340.780 211.578 340.102 211.290 339.001 C 211.002 337.901 211.227 337.000 211.790 337.000 C 212.352 337.000 212.577 336.100 212.290 335.000 C 212.002 333.900 212.227 333.000 212.790 333.000 C 213.352 333.000 213.577 332.100 213.290 331.000 C 212.984 329.832 213.259 329.000 213.951 329.000 C 214.680 329.000 214.891 328.231 214.500 327.000 C 214.151 325.900 214.303 325.000 214.839 325.000 C 215.375 325.000 215.577 324.100 215.290 323.000 C 215.002 321.900 215.207 321.000 215.745 321.000 C 216.283 321.000 216.495 319.808 216.216 318.351 C 215.891 316.649 216.086 315.935 216.762 316.353 C 217.417 316.758 217.616 316.249 217.290 315.001 C 216.984 313.832 217.259 313.000 217.951 313.000 C 218.680 313.000 218.891 312.231 218.500 311.000 C 218.151 309.900 218.303 309.000 218.839 309.000 C 219.375 309.000 219.577 308.100 219.290 307.000 C 219.002 305.900 219.227 305.000 219.790 305.000 C 220.352 305.000 220.577 304.100 220.290 303.000 C 219.984 301.832 220.259 301.000 220.951 301.000 C 221.680 301.000 221.891 300.231 221.500 299.000 C 221.151 297.900 221.303 297.000 221.839 297.000 C 222.375 297.000 222.577 296.100 222.290 295.000 C 222.002 293.900 222.227 293.000 222.790 293.000 C 223.352 293.000 223.577 292.100 223.290 291.000 C 222.984 289.832 223.259 289.000 223.951 289.000 C 224.680 289.000 224.891 288.231 224.500 287.000 C 224.120 285.802 224.320 285.000 225.000 285.000 C 225.680 285.000 225.880 284.198 225.500 283.000 C 225.151 281.900 225.303 281.000 225.839 281.000 C 226.375 281.000 226.577 280.100 226.290 279.000 C 225.984 277.832 226.259 277.000 226.951 277.000 C 227.680 277.000 227.891 276.231 227.500 275.000 C 227.120 273.802 227.320 273.000 228.000 273.000 C 228.680 273.000 228.880 272.198 228.500 271.000 C 228.151 269.900 228.303 269.000 228.839 269.000 C 229.375 269.000 229.577 268.100 229.290 267.000 C 229.002 265.900 229.227 265.000 229.790 265.000 C 230.352 265.000 230.577 264.100 230.290 263.000 C 229.984 261.832 230.259 261.000 230.951 261.000 C 231.680 261.000 231.891 260.231 231.500 259.000 C 231.120 257.802 231.320 257.000 232.000 257.000 C 232.680 257.000 232.880 256.198 232.500 255.000 C 232.151 253.900 232.283 253.000 232.794 253.000 C 233.305 253.000 233.495 251.808 233.216 250.351 C 232.844 248.402 233.041 247.907 233.962 248.477 C 234.879 249.043 235.034 248.681 234.540 247.125 C 234.122 245.811 234.298 245.000 235.000 245.000 C 235.680 245.000 235.880 244.198 235.500 243.000 C 235.151 241.900 235.283 241.000 235.794 241.000 C 236.305 241.000 236.495 239.808 236.216 238.351 C 235.858 236.475 236.056 235.916 236.895 236.435 C 237.753 236.966 237.891 236.414 237.394 234.435 C 236.879 232.381 237.020 231.894 237.961 232.476 C 238.879 233.043 239.034 232.682 238.540 231.125 C 238.169 229.956 238.283 229.000 238.794 229.000 C 239.305 229.000 239.495 227.808 239.216 226.351 C 238.906 224.727 239.097 223.942 239.711 224.321 C 240.324 224.700 240.521 223.888 240.219 222.220 C 239.948 220.724 240.085 219.834 240.523 220.243 C 240.961 220.652 241.215 217.757 241.087 213.810 C 240.733 202.920 236.811 196.922 228.045 193.866 C 226.372 193.283 225.250 192.404 225.553 191.914 C 225.856 191.424 225.360 191.308 224.451 191.657 C 223.542 192.006 222.493 191.797 222.119 191.193 C 221.746 190.588 219.429 189.800 216.970 189.440 C 212.822 188.833 212.646 188.894 214.530 190.295 "/></g>
<g fill="#AD6F24FF" stroke="#AD6F24FF">
<path d="M 254.420 418.885 C 252.726 419.918 250.762 422.161 250.054 423.869 C 249.347 425.577 248.412 426.755 247.977 426.486 C 247.542 426.217 247.422 426.898 247.710 427.999 C 247.998 429.099 247.773 430.000 247.210 430.000 C 246.648 430.000 246.423 430.900 246.710 432.000 C 246.998 433.100 246.773 434.000 246.210 434.000 C 245.648 434.000 245.423 434.900 245.710 436.000 C 245.998 437.100 245.773 438.000 245.210 438.000 C 244.648 438.000 244.423 438.900 244.710 440.000 C 245.014 441.162 244.741 442.000 244.058 442.000 C 243.411 442.000 243.172 442.470 243.527 443.044 C 243.882 443.618 243.748 444.630 243.230 445.294 C 242.164 446.659 239.714 456.047 240.277 456.610 C 241.214 457.548 245.191 448.435 247.350 440.402 C 251.544 424.796 254.226 420.667 260.169 420.667 C 267.110 420.667 268.667 427.918 265.007 443.187 C 263.911 447.759 263.057 453.975 263.110 457.000 L 263.205 462.500 265.017 457.000 C 266.014 453.975 266.577 450.420 266.269 449.101 C 265.925 447.630 266.096 446.941 266.710 447.321 C 267.323 447.700 267.517 446.925 267.211 445.321 C 266.857 443.470 267.057 442.917 267.895 443.435 C 268.753 443.966 268.891 443.414 268.394 441.435 C 267.897 439.454 268.035 438.903 268.894 439.435 C 269.755 439.967 269.894 439.392 269.399 437.334 C 269.025 435.775 269.094 434.849 269.552 435.276 C 270.740 436.382 270.139 426.050 268.820 422.703 C 267.617 419.648 263.422 416.998 259.800 417.004 C 258.535 417.006 256.114 417.853 254.420 418.885 "/></g>
<g fill="#AD6F24FF" stroke="#AD6F24FF">
<path d="M 319.806 136.315 C 318.875 139.513 318.360 142.776 318.663 143.565 C 318.966 144.354 318.758 145.000 318.201 145.000 C 317.643 145.000 317.423 145.900 317.710 147.000 C 317.998 148.100 317.773 149.000 317.210 149.000 C 316.648 149.000 316.423 149.900 316.710 151.000 C 317.016 152.168 316.741 153.000 316.049 153.000 C 315.320 153.000 315.109 153.769 315.500 155.000 C 315.849 156.100 315.757 157.000 315.295 157.000 C 314.833 157.000 314.700 159.925 315.000 163.500 C 315.447 168.831 316.036 170.490 318.273 172.727 C 322.140 176.595 327.802 176.522 331.947 172.551 C 333.613 170.954 335.240 168.821 335.560 167.809 C 335.881 166.798 336.497 166.189 336.928 166.455 C 337.358 166.722 337.486 165.761 337.211 164.321 C 336.889 162.641 337.087 161.936 337.762 162.353 C 338.417 162.758 338.616 162.249 338.290 161.001 C 338.002 159.901 338.227 159.000 338.790 159.000 C 339.352 159.000 339.577 158.100 339.290 157.000 C 338.984 155.832 339.259 155.000 339.951 155.000 C 340.680 155.000 340.891 154.231 340.500 153.000 C 340.125 151.819 340.320 151.000 340.976 151.000 C 341.588 151.000 341.997 150.438 341.886 149.750 C 341.775 149.063 342.046 147.668 342.487 146.652 C 342.928 145.635 343.337 143.160 343.395 141.152 L 343.500 137.500 341.349 142.000 C 340.166 144.475 337.940 151.000 336.403 156.500 C 333.214 167.913 330.228 172.000 325.077 172.000 C 317.768 172.000 316.398 165.745 320.048 149.025 C 321.174 143.865 321.961 137.586 321.798 135.072 L 321.500 130.500 319.806 136.315 "/></g>
<g fill="#AD6F24FF" stroke="#AD6F24FF">
<path d="M 164.000 389.412 C 164.000 390.900 173.587 394.479 187.022 398.006 C 195.236 400.162 203.205 402.572 204.731 403.361 C 212.362 407.307 213.408 412.841 209.563 428.920 C 208.020 435.374 207.027 442.071 207.209 444.792 L 207.525 449.500 208.888 445.000 C 209.639 442.525 210.226 439.263 210.193 437.750 C 210.160 436.238 210.512 435.000 210.973 435.000 C 211.435 435.000 211.577 434.100 211.290 433.000 C 211.002 431.900 211.227 431.000 211.790 431.000 C 212.352 431.000 212.577 430.100 212.290 429.000 C 212.002 427.900 212.227 427.000 212.790 427.000 C 213.352 427.000 213.577 426.100 213.290 425.000 C 213.002 423.900 213.207 423.000 213.745 423.000 C 214.283 423.000 214.495 421.808 214.216 420.351 C 213.909 418.745 214.099 417.943 214.700 418.314 C 216.365 419.343 214.233 408.796 212.215 406.021 C 211.208 404.634 208.401 402.488 205.980 401.250 C 203.558 400.013 201.784 398.948 202.038 398.885 C 202.292 398.822 201.713 398.850 200.750 398.948 C 199.788 399.046 199.000 398.690 199.000 398.156 C 199.000 397.623 198.100 397.423 197.000 397.710 C 195.900 397.998 195.000 397.773 195.000 397.210 C 195.000 396.648 194.100 396.423 193.000 396.710 C 191.900 396.998 191.000 396.773 191.000 396.210 C 191.000 395.648 190.100 395.423 189.000 395.710 C 187.900 395.998 187.000 395.773 187.000 395.210 C 187.000 394.648 186.100 394.423 185.000 394.710 C 183.900 394.998 183.000 394.773 183.000 394.210 C 183.000 393.648 182.100 393.423 181.000 393.710 C 179.838 394.014 179.000 393.741 179.000 393.058 C 179.000 392.411 178.530 392.172 177.956 392.527 C 177.382 392.882 176.370 392.735 175.706 392.202 C 175.043 391.668 172.925 390.920 171.000 390.541 C 169.075 390.161 166.713 389.629 165.750 389.358 C 164.788 389.087 164.000 389.111 164.000 389.412 "/></g>
<g fill="#AD6F24FF" stroke="#AD6F24FF">
<path d="M 286.281 126.761 C 285.140 128.818 282.994 134.985 281.513 140.467 C 278.428 151.882 275.983 157.198 272.791 159.434 C 269.354 161.841 262.250 161.335 247.199 157.609 C 231.693 153.771 226.379 152.961 223.500 153.997 C 221.810 154.605 222.043 154.841 225.000 155.519 C 226.925 155.960 229.400 156.436 230.500 156.577 C 231.600 156.718 232.725 156.923 233.000 157.032 C 233.275 157.141 234.288 157.150 235.250 157.052 C 236.213 156.954 237.000 157.310 237.000 157.844 C 237.000 158.377 237.900 158.577 239.000 158.290 C 240.100 158.002 241.000 158.227 241.000 158.790 C 241.000 159.352 241.900 159.577 243.000 159.290 C 244.100 159.002 245.000 159.227 245.000 159.790 C 245.000 160.352 245.900 160.577 247.000 160.290 C 248.100 160.002 249.000 160.227 249.000 160.790 C 249.000 161.352 249.900 161.577 251.000 161.290 C 252.100 161.002 253.000 161.227 253.000 161.790 C 253.000 162.352 253.900 162.577 255.000 162.290 C 256.100 162.002 257.002 162.157 257.005 162.633 C 257.007 163.110 260.044 163.624 263.755 163.775 C 272.278 164.121 276.064 162.043 279.258 155.260 C 280.491 152.642 281.790 150.366 282.144 150.202 C 282.498 150.038 282.558 149.026 282.277 147.952 C 281.996 146.878 282.227 146.000 282.790 146.000 C 283.352 146.000 283.577 145.100 283.290 144.000 C 283.002 142.900 283.227 142.000 283.790 142.000 C 284.352 142.000 284.577 141.100 284.290 140.000 C 283.986 138.838 284.259 138.000 284.942 138.000 C 285.589 138.000 285.828 137.530 285.473 136.956 C 285.118 136.382 285.252 135.370 285.770 134.706 C 286.836 133.341 289.286 123.953 288.723 123.390 C 288.521 123.188 287.422 124.705 286.281 126.761 "/></g>
<g fill="#C8822DFF" stroke="#C8822DFF">
<path d="M 377.119 156.000 C 377.035 157.375 376.081 161.875 375.000 166.000 C 373.919 170.125 373.027 176.072 373.017 179.215 C 373.002 184.157 373.407 185.394 376.011 188.359 C 377.666 190.245 382.729 193.698 387.261 196.032 C 406.167 205.770 418.926 216.998 424.896 229.150 C 435.579 250.899 431.166 278.236 414.046 296.352 C 402.816 308.235 402.623 309.710 410.863 320.688 C 417.841 329.985 419.770 333.527 422.193 341.500 C 423.605 346.147 423.888 346.598 423.448 343.500 C 422.660 337.957 418.141 328.633 412.784 321.500 C 404.047 309.865 404.099 308.964 414.122 298.097 C 436.890 273.411 437.591 237.208 415.734 214.752 C 409.067 207.902 401.740 202.616 390.500 196.549 C 379.013 190.347 377.022 188.943 375.476 185.953 C 373.437 182.011 373.630 175.283 376.053 165.792 C 377.182 161.369 377.919 156.794 377.689 155.625 C 377.325 153.770 377.253 153.818 377.119 156.000 "/></g>
<g fill="#C8822DFF" stroke="#C8822DFF">
<path d="M 423.838 359.000 C 422.856 374.570 417.267 391.431 409.107 403.442 C 405.648 408.533 396.709 417.151 391.197 420.708 C 379.564 428.214 368.769 431.012 347.500 432.034 L 331.500 432.803 348.000 432.495 C 367.091 432.139 373.294 430.865 385.959 424.700 C 408.085 413.929 423.981 386.731 424.357 359.000 L 424.500 348.500 423.838 359.000 "/></g>
<g fill="#C8822DFF" stroke="#C8822DFF">
<path d="M 257.500 420.955 C 252.995 422.778 251.237 426.160 247.350 440.488 C 246.009 445.431 243.752 451.454 242.335 453.871 C 240.919 456.289 240.270 457.951 240.894 457.566 C 242.946 456.297 245.814 449.518 249.051 438.284 C 252.479 426.388 255.306 422.000 259.540 422.000 C 266.068 422.000 267.443 428.424 263.993 442.813 C 262.113 450.655 261.202 465.131 262.682 463.652 C 263.056 463.277 263.251 460.557 263.115 457.608 C 262.978 454.659 263.796 448.331 264.933 443.544 C 267.508 432.701 267.614 425.932 265.250 423.198 C 263.114 420.727 260.169 419.875 257.500 420.955 "/></g>
<g fill="#C8822DFF" stroke="#C8822DFF">
<path d="M 321.822 134.844 C 321.998 137.405 321.211 143.754 320.072 148.953 C 316.394 165.734 317.755 172.000 325.077 172.000 C 330.228 172.000 333.214 167.913 336.403 156.500 C 339.915 143.934 342.600 137.635 344.060 138.537 C 344.780 138.982 345.047 138.396 344.822 136.861 C 344.511 134.744 344.198 134.966 341.798 139.000 C 340.326 141.475 337.964 147.550 336.548 152.500 C 333.078 164.638 332.149 166.738 329.230 169.034 C 325.985 171.586 323.563 171.521 321.039 168.811 C 318.404 165.983 318.391 160.668 320.993 149.813 C 322.996 141.460 323.648 131.520 322.250 130.653 C 321.838 130.397 321.645 132.283 321.822 134.844 "/></g>
<g fill="#C8822DFF" stroke="#C8822DFF">
<path d="M 286.236 125.177 C 284.136 128.260 282.899 131.821 278.508 147.430 C 277.402 151.359 275.719 154.481 273.520 156.680 C 269.194 161.006 265.013 161.045 248.692 156.914 C 241.986 155.217 234.152 153.443 231.282 152.972 C 225.600 152.039 218.015 152.773 220.089 154.055 C 220.773 154.478 222.271 154.471 223.417 154.039 C 226.222 152.982 234.047 154.177 248.692 157.901 C 262.244 161.346 269.410 161.802 272.791 159.434 C 275.982 157.199 278.426 151.886 281.517 140.467 C 283.001 134.985 285.180 128.555 286.358 126.177 L 288.500 121.855 286.236 125.177 "/></g>
<g fill="#C8822DFF" stroke="#C8822DFF">
<path d="M 164.000 391.000 C 166.951 393.307 174.706 395.969 188.546 399.424 C 201.566 402.674 205.189 404.248 208.380 408.040 C 211.730 412.021 211.751 415.772 208.501 429.186 C 206.071 439.218 205.288 447.954 206.693 449.359 C 207.074 449.740 207.268 447.838 207.124 445.133 C 206.976 442.347 208.028 435.342 209.548 428.985 C 213.409 412.837 212.370 407.311 204.731 403.361 C 203.205 402.572 195.134 400.135 186.795 397.946 C 178.456 395.757 169.634 392.849 167.191 391.483 C 161.878 388.514 160.567 388.315 164.000 391.000 "/></g>
<g fill="#C8822DFF" stroke="#C8822DFF">
<path d="M 213.653 314.163 C 210.451 326.943 206.742 339.550 205.410 342.177 C 202.049 348.811 199.283 350.000 187.216 350.000 C 181.781 350.000 177.056 350.277 176.717 350.617 C 176.378 350.956 181.246 351.157 187.536 351.064 C 205.275 350.801 205.684 350.255 214.460 315.081 C 217.537 302.750 219.924 292.271 219.765 291.794 C 219.606 291.317 216.855 301.383 213.653 314.163 "/></g>
<g fill="#C8822DFF" stroke="#C8822DFF">
<path d="M 212.763 190.325 C 214.497 191.604 219.059 193.884 222.901 195.392 C 227.645 197.253 231.005 199.370 233.370 201.988 C 239.021 208.243 238.994 211.203 233.058 235.954 C 230.245 247.682 228.119 257.452 228.334 257.667 C 228.831 258.165 237.886 221.109 238.677 215.337 C 239.994 205.728 234.518 198.681 222.134 194.050 C 218.866 192.828 215.268 190.967 214.138 189.914 C 213.008 188.861 211.527 188.000 210.848 188.000 C 210.168 188.000 211.030 189.046 212.763 190.325 "/></g>
<g fill="#00000044" stroke="#00000044">
<path d="M 479.500 79.502 C 481.150 80.992 487.147 86.304 492.827 91.306 C 504.551 101.632 519.089 117.577 529.759 131.814 C 533.751 137.141 537.126 141.345 537.259 141.155 C 537.712 140.506 523.517 122.201 515.000 112.449 C 506.560 102.786 489.282 86.396 480.882 80.085 C 477.916 77.857 477.470 77.668 479.500 79.502 "/></g>
<g fill="#AD6F24FF" stroke="#AD6F24FF">
<path d="M 166.523 359.381 C 163.495 363.350 159.009 375.219 159.107 379.000 C 159.156 380.901 159.846 380.061 161.983 375.500 C 163.530 372.200 164.590 369.163 164.339 368.750 C 164.087 368.338 164.359 368.000 164.941 368.000 C 165.523 368.000 165.930 367.663 165.844 367.250 C 165.759 366.838 166.696 364.325 167.928 361.667 C 170.690 355.706 170.081 354.716 166.523 359.381 "/></g>
<g fill="#C8822DFF" stroke="#C8822DFF">
<path d="M 313.304 432.956 C 308.182 436.080 307.528 437.535 301.583 459.078 C 300.737 462.146 298.887 466.361 297.473 468.445 C 296.058 470.529 295.116 472.449 295.378 472.712 C 296.656 473.990 301.319 463.860 304.012 453.956 C 307.447 441.324 309.821 436.150 313.167 434.003 C 314.458 433.175 319.073 432.246 323.500 431.922 L 331.500 431.338 324.000 431.173 C 318.120 431.043 315.810 431.428 313.304 432.956 "/></g>
<g fill="#00000044" stroke="#00000044">
<path d="M 527.025 476.213 C 516.623 489.526 505.423 501.567 492.889 512.912 C 486.456 518.736 482.800 522.375 484.765 521.000 C 494.657 514.077 532.132 473.813 533.279 468.874 C 533.401 468.352 530.586 471.655 527.025 476.213 "/></g>
<g fill="#00000044" stroke="#00000044">
<path d="M 78.448 477.933 C 86.922 488.946 102.139 505.061 112.851 514.368 C 118.708 519.457 122.289 522.468 120.809 521.060 C 102.613 503.747 88.078 488.802 82.091 481.250 C 78.058 476.163 74.562 472.000 74.321 472.000 C 74.080 472.000 75.937 474.670 78.448 477.933 "/></g>
<g fill="#AD6F24FF" stroke="#AD6F24FF">
<path d="M 211.756 161.066 C 209.415 164.508 206.545 176.420 207.508 178.692 C 208.115 180.125 208.555 179.582 209.624 176.076 C 210.367 173.643 211.542 168.693 212.237 165.076 C 213.461 158.701 213.447 158.578 211.756 161.066 "/></g>
<g fill="#AD6F24FF" stroke="#AD6F24FF">
<path d="M 213.881 457.629 C 217.164 459.929 224.593 462.005 229.409 461.970 C 235.064 461.928 232.441 460.555 221.858 458.018 C 211.712 455.585 210.907 455.546 213.881 457.629 "/></g>
<g fill="#AD6F24FF" stroke="#AD6F24FF">
<path d="M 270.470 471.971 C 274.926 474.908 287.000 477.211 287.000 475.123 C 287.000 474.306 271.642 469.992 268.786 470.007 C 268.079 470.010 268.837 470.894 270.470 471.971 "/></g>
<g fill="#AD6F24FF" stroke="#AD6F24FF">
<path d="M 352.169 132.451 C 353.038 133.387 372.100 138.233 372.670 137.663 C 372.909 137.424 371.049 136.234 368.538 135.018 C 364.305 132.969 350.665 130.830 352.169 132.451 "/></g>
<g fill="#AD6F24FF" stroke="#AD6F24FF">
<path d="M 296.169 118.451 C 297.038 119.387 316.100 124.233 316.670 123.663 C 316.909 123.424 315.049 122.234 312.538 121.018 C 308.305 118.969 294.665 116.830 296.169 118.451 "/></g>
<g fill="#00000044" stroke="#00000044">
<path d="M 111.107 91.548 C 105.390 96.589 96.589 105.390 91.548 111.107 C 86.507 116.823 83.534 120.298 84.941 118.828 C 88.267 115.355 115.355 88.267 118.828 84.941 C 120.298 83.534 116.823 86.507 111.107 91.548 "/></g>
<g fill="#C8822DFF" stroke="#C8822DFF">
<path d="M 167.656 355.996 C 162.537 362.080 157.872 374.030 158.118 380.432 C 158.204 382.684 158.454 382.192 159.059 378.581 C 160.370 370.751 164.036 362.104 167.685 358.235 C 169.538 356.270 170.909 354.227 170.731 353.694 C 170.554 353.162 169.170 354.198 167.656 355.996 "/></g>
<g fill="#C8822DFF" stroke="#C8822DFF">
<path d="M 223.684 274.184 C 221.627 282.486 220.125 289.458 220.345 289.678 C 220.565 289.899 222.435 283.293 224.500 275.000 C 226.565 266.707 228.068 259.734 227.839 259.506 C 227.611 259.277 225.741 265.883 223.684 274.184 "/></g>
<g fill="#C8822DFF" stroke="#C8822DFF">
<path d="M 212.271 158.172 C 210.499 160.309 208.211 166.095 206.998 171.509 C 205.866 176.562 206.654 184.177 208.073 181.882 C 208.526 181.149 208.409 179.992 207.808 179.268 C 205.873 176.937 210.646 159.045 212.841 160.402 C 213.327 160.702 213.674 159.990 213.612 158.819 C 213.516 156.995 213.324 156.902 212.271 158.172 "/></g>
<g fill="#C8822DFF" stroke="#C8822DFF">
<path d="M 268.266 471.407 C 272.809 475.553 285.237 478.404 288.834 476.124 C 289.916 475.438 289.881 475.168 288.648 474.695 C 287.813 474.375 286.956 474.632 286.745 475.266 C 286.133 477.102 274.392 474.505 269.598 471.473 L 265.500 468.882 268.266 471.407 "/></g>
<g fill="#C8822DFF" stroke="#C8822DFF">
<path d="M 351.005 131.750 C 351.008 132.163 353.876 132.519 357.379 132.542 C 362.261 132.575 365.000 133.218 369.123 135.300 C 373.218 137.369 373.940 137.540 372.151 136.017 C 370.858 134.918 367.514 133.339 364.719 132.509 C 359.396 130.928 350.996 130.463 351.005 131.750 "/></g>
<g fill="#C8822DFF" stroke="#C8822DFF">
<path d="M 295.762 117.572 C 295.447 117.886 298.021 118.245 301.481 118.370 C 306.001 118.534 309.281 119.360 313.136 121.307 C 317.230 123.375 317.944 123.543 316.151 122.017 C 312.102 118.573 297.865 115.469 295.762 117.572 "/></g>
<g fill="#C8822DFF" stroke="#C8822DFF">
<path d="M 212.849 457.983 C 215.780 460.476 224.203 463.040 228.932 462.878 C 231.566 462.788 230.930 462.529 226.500 461.886 C 223.200 461.408 218.250 459.884 215.500 458.500 C 211.420 456.447 210.932 456.352 212.849 457.983 "/></g>
<g fill="#00000036" stroke="#00000036">
<path d="M 100.500 100.477 L 90.500 110.536 100.500 100.477 L 110.500 90.418 100.500 100.477 "/></g>
<g fill="#0000001A" stroke="#0000001A">
<path d="M 98.500 98.477 L 88.500 108.536 98.500 98.477 L 108.500 88.418 98.500 98.477 "/></g>
<g fill="#00000030" stroke="#00000030">
<path d="M 100.500 504.500 L 110.000 514.000 100.500 504.500 L 91.000 495.000 100.500 504.500 "/></g>
<g fill="#00000044" stroke="#00000044">
<path d="M 470.828 531.000 C 466.059 534.575 464.612 535.925 467.613 534.000 C 470.614 532.075 474.516 529.150 476.285 527.500 C 478.053 525.850 475.598 527.425 470.828 531.000 "/></g>
<g fill="#00000030" stroke="#00000030">
<path d="M 505.000 100.000 L 514.000 109.000 505.000 100.000 L 496.000 91.000 505.000 100.000 "/></g>
<g fill="#00000044" stroke="#00000044">
<path d="M 44.064 421.272 C 44.029 421.697 45.913 425.653 48.250 430.064 L 52.500 438.085 48.314 429.292 C 46.011 424.457 44.099 420.847 44.064 421.272 "/></g>
<g fill="#00000044" stroke="#00000044">
<path d="M 557.439 176.750 C 559.892 181.563 561.922 185.153 561.949 184.728 C 562.020 183.654 554.092 168.000 553.478 168.000 C 553.203 168.000 554.986 171.938 557.439 176.750 "/></g>
<g fill="#00000020" stroke="#00000020">
<path d="M 99.000 98.970 L 91.500 106.543 99.000 98.970 L 106.500 91.397 99.000 98.970 "/></g>
<g fill="#00000044" stroke="#00000044">
<path d="M 131.322 74.610 C 127.374 77.551 123.842 80.446 123.473 81.044 C 122.732 82.243 137.199 71.284 138.000 70.039 C 138.275 69.611 135.270 71.668 131.322 74.610 "/></g>
<g fill="#0000002A" stroke="#0000002A">
<path d="M 505.000 504.970 L 497.500 512.543 505.000 504.970 L 512.500 497.397 505.000 504.970 "/></g>
<g fill="#00000044" stroke="#00000044">
<path d="M 47.686 175.033 C 45.588 178.978 44.044 182.378 44.255 182.588 C 44.466 182.799 46.182 179.572 48.069 175.417 L 51.500 167.862 47.686 175.033 "/></g>
<g fill="#00000015" stroke="#00000015">
<path d="M 98.500 506.500 L 106.000 514.000 98.500 506.500 L 91.000 499.000 98.500 506.500 "/></g>
<g fill="#00000044" stroke="#00000044">
<path d="M 539.000 459.927 L 534.500 467.037 538.714 461.126 C 541.032 457.875 543.057 454.676 543.214 454.017 C 543.371 453.357 541.475 456.017 539.000 459.927 "/></g>
<g fill="#00000044" stroke="#00000044">
<path d="M 570.579 208.250 C 572.498 214.301 574.862 220.386 574.927 219.444 C 575.027 218.000 570.933 206.000 570.341 206.000 C 570.079 206.000 570.186 207.013 570.579 208.250 "/></g>
<g fill="#00000044" stroke="#00000044">
<path d="M 455.754 62.663 C 456.994 63.673 460.272 65.850 463.039 67.500 C 467.798 70.338 467.758 70.280 462.285 66.424 C 455.844 61.886 452.286 59.837 455.754 62.663 "/></g>
<g fill="#00000044" stroke="#00000044">
<path d="M 179.000 45.500 C 175.425 47.372 172.950 48.903 173.500 48.903 C 174.050 48.903 177.425 47.372 181.000 45.500 C 184.575 43.628 187.050 42.097 186.500 42.097 C 185.950 42.097 182.575 43.628 179.000 45.500 "/></g>
<g fill="#00000030" stroke="#00000030">
<path d="M 100.000 99.966 L 93.500 106.547 100.000 99.966 L 106.500 93.385 100.000 99.966 "/></g>
<g fill="#00000005" stroke="#00000005">
<path d="M 508.000 507.961 L 502.500 513.551 508.000 507.961 L 513.500 502.370 508.000 507.961 "/></g>
<g fill="#0000000E" stroke="#0000000E">
<path d="M 507.000 97.000 L 513.000 103.000 507.000 97.000 L 501.000 91.000 507.000 97.000 "/></g>
<g fill="#0000000A" stroke="#0000000A">
<path d="M 508.000 506.961 L 502.500 512.551 508.000 506.961 L 513.500 501.370 508.000 506.961 "/></g>
<g fill="#00000044" stroke="#00000044">
<path d="M 553.500 436.090 L 550.500 442.181 553.500 436.090 L 556.500 430.000 553.500 436.090 "/></g>
<g fill="#00000044" stroke="#00000044">
<path d="M 77.198 128.124 C 74.832 130.976 72.807 133.723 72.698 134.227 C 72.589 134.731 74.525 132.397 77.000 129.040 L 81.500 122.937 77.198 128.124 "/></g>
<g fill="#00000008" stroke="#00000008">
<path d="M 97.000 96.961 L 91.500 102.551 97.000 96.961 L 102.500 91.370 97.000 96.961 "/></g>
<g fill="#0000001A" stroke="#0000001A">
<path d="M 500.000 92.000 L 506.000 98.000 500.000 92.000 L 494.000 86.000 500.000 92.000 "/></g>
<g fill="#0000001D" stroke="#0000001D">
<path d="M 506.000 505.961 L 500.500 511.551 506.000 505.961 L 511.500 500.370 506.000 505.961 "/></g>
<g fill="#0000002A" stroke="#0000002A">
<path d="M 100.000 505.000 L 106.000 511.000 100.000 505.000 L 94.000 499.000 100.000 505.000 "/></g>
<g fill="#00000026" stroke="#00000026">
<path d="M 505.500 505.457 L 500.500 510.554 505.500 505.457 L 510.500 500.361 505.500 505.457 "/></g>
<g fill="#00000027" stroke="#00000027">
<path d="M 99.500 99.457 L 94.500 104.554 99.500 99.457 L 104.500 94.361 99.500 99.457 "/></g>
<g fill="#00000015" stroke="#00000015">
<path d="M 506.500 97.500 L 512.000 103.000 506.500 97.500 L 501.000 92.000 506.500 97.500 "/></g>
<g fill="#00000044" stroke="#00000044">
<path d="M 559.189 423.549 C 556.176 429.749 556.512 430.617 559.615 424.652 C 561.003 421.986 561.967 419.633 561.757 419.424 C 561.548 419.215 560.392 421.071 559.189 423.549 "/></g>
<g fill="#C8822DFF" stroke="#C8822DFF">
<path d="M 377.679 147.500 C 377.996 150.250 378.424 152.688 378.628 152.917 C 379.331 153.704 378.800 147.498 377.951 145.000 C 377.378 143.314 377.289 144.128 377.679 147.500 "/></g>
<g fill="#00000036" stroke="#00000036">
<path d="M 497.000 93.000 L 502.000 98.000 497.000 93.000 L 492.000 88.000 497.000 93.000 "/></g>
<g fill="#0000001A" stroke="#0000001A">
<path d="M 512.000 104.000 L 517.000 109.000 512.000 104.000 L 507.000 99.000 512.000 104.000 "/></g>
<g fill="#0000001D" stroke="#0000001D">
<path d="M 100.000 507.000 L 105.000 512.000 100.000 507.000 L 95.000 502.000 100.000 507.000 "/></g>
</svg>
